<?xml version="1.0" encoding="UTF-8" standalone="no"?>
<svg
   xmlns:dc="http://purl.org/dc/elements/1.1/"
   xmlns:cc="http://creativecommons.org/ns#"
   xmlns:rdf="http://www.w3.org/1999/02/22-rdf-syntax-ns#"
   xmlns:svg="http://www.w3.org/2000/svg"
   xmlns="http://www.w3.org/2000/svg"
   xmlns:xlink="http://www.w3.org/1999/xlink"
   xmlns:sodipodi="http://sodipodi.sourceforge.net/DTD/sodipodi-0.dtd"
   xmlns:inkscape="http://www.inkscape.org/namespaces/inkscape"
   viewBox="0 0 294 343"
   id="svg2"
   version="1.1"
   inkscape:version="0.48.3.1 r9886"
   width="100%"
   height="100%"
   sodipodi:docname="droidstamp_logo.svg">
  <metadata
     id="metadata34">
    <rdf:RDF>
      <cc:Work
         rdf:about="">
        <dc:format>image/svg+xml</dc:format>
        <dc:type
           rdf:resource="http://purl.org/dc/dcmitype/StillImage" />
      </cc:Work>
    </rdf:RDF>
  </metadata>
  <defs
     id="defs32" />
  <sodipodi:namedview
     pagecolor="#ffffff"
     bordercolor="#666666"
     borderopacity="1"
     objecttolerance="10"
     gridtolerance="10"
     guidetolerance="10"
     inkscape:pageopacity="0"
     inkscape:pageshadow="2"
     inkscape:window-width="1301"
     inkscape:window-height="744"
     id="namedview30"
     showgrid="false"
     inkscape:zoom="0.9730449"
     inkscape:cx="28.736187"
     inkscape:cy="173.96626"
     inkscape:window-x="65"
     inkscape:window-y="24"
     inkscape:window-maximized="1"
     inkscape:current-layer="svg2" />
  <g
     id="g3909"
     transform="translate(12.907221,-5.138509)">
    <g
       id="g3906">
      <use
         style="fill:none;stroke:none"
         height="343"
         width="294"
         id="use18-6"
         x="85.026001"
         y="96.970001"
         xlink:href="#c"
         transform="matrix(1.3487191,0,0,0.65055509,-6.4931116,145.27643)" />
    </g>
    <use
       transform="matrix(-0.33090324,0,0,1.0225614,143.08487,-7.0911347)"
       style="fill:#a4c639;stroke:#ffffff;stroke-width:7.16800022"
       height="343"
       width="294"
       id="use3061-3"
       x="85.026001"
       y="96.970001"
       xlink:href="#c" />
    <use
       transform="matrix(-0.33090324,0,0,1.0225614,221.89432,-8.2151201)"
       style="fill:#a4c639;stroke:#ffffff;stroke-width:7.16800022"
       height="343"
       width="294"
       id="use3061"
       x="85.026001"
       y="96.970001"
       xlink:href="#c" />
  </g>
  <g
     id="g3892"
     transform="translate(11.615235,-5.138509)">
    <ellipse
       cy="109.9"
       cx="146.60001"
       rx="98.739998"
       ry="91.110001"
       id="ellipse6"
       sodipodi:cx="146.60001"
       sodipodi:cy="109.9"
       sodipodi:rx="98.739998"
       sodipodi:ry="91.110001"
       style="fill:#ffffff"
       d="m 245.34,109.9 c 0,50.31867 -44.2074,91.11 -98.73999,91.11 -54.532599,0 -98.740002,-40.79133 -98.740002,-91.11 0,-50.318662 44.207403,-91.109999 98.740002,-91.109999 54.53259,0 98.73999,40.791337 98.73999,91.109999 z" />
    <rect
       id="rect10"
       x="51.419998"
       y="85.529999"
       width="190.3"
       height="188.89999"
       rx="25.959999"
       style="fill:#a4c639;stroke:#ffffff;stroke-width:7.16800022" />
    <rect
       rx="5.072"
       transform="matrix(0.87672676,0.48098877,-0.48098877,0.87672676,0,0)"
       height="43"
       width="10.144"
       y="-94"
       x="177.62"
       id="rect13"
       style="fill:#a4c639;stroke:#ffffff;stroke-width:7.16800022" />
    <ellipse
       cx="146.60001"
       rx="91.57"
       cy="109.9"
       ry="83.949997"
       id="ellipse15"
       d="m 238.17001,109.9 c 0,46.3643 -40.99729,83.95 -91.57,83.95 -50.572718,0 -91.570004,-37.5857 -91.570004,-83.95 0,-46.364302 40.997286,-83.949995 91.570004,-83.949995 50.57271,0 91.57,37.585693 91.57,83.949995 z"
       sodipodi:cx="146.60001"
       sodipodi:cy="109.9"
       sodipodi:rx="91.57"
       sodipodi:ry="83.949997"
       style="fill:#a4c639;stroke:#ffffff;stroke-width:7.16800022;stroke-opacity:0" />
    <rect
       id="c"
       rx="23.92"
       height="132.89999"
       width="47.84"
       y="109.6"
       x="3.569"
       style="fill:#a4c639;stroke:#ffffff;stroke-width:7.16800022" />
    <rect
       rx="22.120001"
       height="181.8"
       width="183.2"
       y="89.099998"
       x="54.990002"
       id="rect20"
       style="fill:#a4c639;stroke:#ffffff;stroke-width:7.16800022;stroke-opacity:0" />
    <line
       x1="48"
       x2="245"
       y1="113.5"
       y2="113.5"
       id="line22"
       style="fill:#a4c639;stroke:#ffffff;stroke-width:7.16800022" />
    <rect
       style="fill:#a4c639;stroke:#ffffff;stroke-width:7.16800022"
       id="rect3055"
       x="-79.348618"
       y="46.977806"
       width="10.144"
       height="43"
       transform="matrix(-0.87672676,0.48098877,0.48098877,0.87672676,0,0)"
       rx="5.072" />
    <ellipse
       transform="matrix(-1,0,0,1,293.1,0)"
       style="fill:#a4c639;stroke:#ffffff;stroke-width:7.16800022;stroke-opacity:0"
       sodipodi:ry="83.949997"
       sodipodi:rx="91.57"
       sodipodi:cy="109.9"
       sodipodi:cx="146.60001"
       d="m 238.17001,109.9 c 0,46.3643 -40.99729,83.95 -91.57,83.95 -50.572718,0 -91.570004,-37.5857 -91.570004,-83.95 0,-46.364302 40.997286,-83.949995 91.570004,-83.949995 50.57271,0 91.57,37.585693 91.57,83.949995 z"
       id="ellipse3057"
       ry="83.949997"
       cy="109.9"
       rx="91.57"
       cx="146.60001" />
    <rect
       transform="scale(-1,1)"
       style="fill:#a4c639;stroke:#ffffff;stroke-width:7.16800022"
       x="-289.53101"
       y="109.6"
       width="47.84"
       height="132.89999"
       rx="23.92"
       id="rect3059" />
    <rect
       transform="scale(-1,1)"
       style="fill:#a4c639;stroke:#ffffff;stroke-width:7.16800022;stroke-opacity:0"
       id="rect3063"
       x="-238.11"
       y="89.099998"
       width="183.2"
       height="181.8"
       rx="22.120001" />
    <line
       style="fill:#a4c639;stroke:#ffffff;stroke-width:7.16800022"
       id="line3065"
       y2="113.5"
       y1="113.5"
       x2="48.099998"
       x1="245.10001" />
  </g>
  <g
     id="g3888"
     transform="translate(243.14665,-5.138509)">
    <circle
       transform="matrix(1.6297262,0,0,1.6297262,-358.30269,-55.52351)"
       cy="69.077003"
       cx="188.24001"
       r="7.6700001"
       id="circle26"
       sodipodi:cx="188.24001"
       sodipodi:cy="69.077003"
       sodipodi:rx="7.6700001"
       sodipodi:ry="7.6700001"
       style="fill:#ffffff"
       d="m 195.91001,69.077003 c 0,4.236025 -3.43398,7.670001 -7.67,7.670001 -4.23603,0 -7.67,-3.433976 -7.67,-7.670001 0,-4.236024 3.43397,-7.67 7.67,-7.67 4.23602,0 7.67,3.433976 7.67,7.67 z" />
    <circle
       transform="matrix(1.6297262,0,0,1.6297262,-289.36548,-55.52351)"
       cy="69.077003"
       cx="104.88"
       r="7.6700001"
       id="circle28"
       sodipodi:cx="104.88"
       sodipodi:cy="69.077003"
       sodipodi:rx="7.6700001"
       sodipodi:ry="7.6700001"
       style="fill:#ffffff"
       d="m 112.55,69.077003 c 0,4.236025 -3.43398,7.670001 -7.67,7.670001 -4.23603,0 -7.670003,-3.433976 -7.670003,-7.670001 0,-4.236024 3.433973,-7.67 7.670003,-7.67 4.23602,0 7.67,3.433976 7.67,7.67 z" />
  </g>
</svg>
