<?xml version="1.0" encoding="UTF-8" standalone="no"?>
<svg
   xmlns:dc="http://purl.org/dc/elements/1.1/"
   xmlns:cc="http://creativecommons.org/ns#"
   xmlns:rdf="http://www.w3.org/1999/02/22-rdf-syntax-ns#"
   xmlns:svg="http://www.w3.org/2000/svg"
   xmlns="http://www.w3.org/2000/svg"
   xmlns:xlink="http://www.w3.org/1999/xlink"
   xmlns:sodipodi="http://sodipodi.sourceforge.net/DTD/sodipodi-0.dtd"
   xmlns:inkscape="http://www.inkscape.org/namespaces/inkscape"
   viewBox="0 0 294 343"
   id="svg2"
   version="1.1"
   inkscape:version="0.48.3.1 r9886"
   width="100%"
   height="100%"
   sodipodi:docname="droidstamp_logo2.svg">
  <metadata
     id="metadata34">
    <rdf:RDF>
      <cc:Work
         rdf:about="">
        <dc:format>image/svg+xml</dc:format>
        <dc:type
           rdf:resource="http://purl.org/dc/dcmitype/StillImage" />
        <dc:title></dc:title>
      </cc:Work>
    </rdf:RDF>
  </metadata>
  <defs
     id="defs32" />
  <sodipodi:namedview
     pagecolor="#ffffff"
     bordercolor="#666666"
     borderopacity="1"
     objecttolerance="10"
     gridtolerance="10"
     guidetolerance="10"
     inkscape:pageopacity="0"
     inkscape:pageshadow="2"
     inkscape:window-width="1301"
     inkscape:window-height="744"
     id="namedview30"
     showgrid="false"
     inkscape:zoom="0.68804665"
     inkscape:cx="98.506503"
     inkscape:cy="50.693231"
     inkscape:window-x="65"
     inkscape:window-y="24"
     inkscape:window-maximized="1"
     inkscape:current-layer="svg2" />
  <g
     id="layer1-8"
     transform="matrix(0.41863103,0,0,0.44085101,-16.102721,-171.92412)"
     style="fill:#000000">
    <path
       style="fill:#000000;stroke:#000000;stroke-width:1.79999995;stroke-linecap:butt;stroke-linejoin:miter;stroke-miterlimit:4;stroke-opacity:1;stroke-dasharray:none;stroke-dashoffset:0;marker:none;visibility:visible;display:inline;overflow:visible;enable-background:accumulate"
       id="path6076-6"
       d="m 724.45982,376.19643 c -0.39139,0.0376 -0.78632,0.0625 -1.1875,0.0625 -6.75578,0 -12.24999,-5.46297 -12.25,-12.21875 0,-0.68258 0.0797,-1.34755 0.1875,-2 l -12.40625,0 c 0.10781,0.65245 0.1875,1.31742 0.1875,2 -1e-5,6.75578 -5.49421,12.21875 -12.25,12.21875 -6.75579,0 -12.21874,-5.46297 -12.21875,-12.21875 0,-0.68258 0.0803,-1.34755 0.1875,-2 l -12.40625,0 c 0.10781,0.65245 0.1875,1.31742 0.1875,2 -1e-5,6.75578 -5.49421,12.21875 -12.25,12.21875 -6.75579,0 -12.24999,-5.46297 -12.25,-12.21875 0,-0.68258 0.0797,-1.34755 0.1875,-2 l -12.40625,0 c 0.10781,0.65245 0.1875,1.31742 0.1875,2 -2e-5,6.75578 -5.49421,12.21875 -12.25,12.21875 -6.75578,0 -12.21874,-5.46297 -12.21875,-12.21875 0,-0.68258 0.0803,-1.34755 0.1875,-2 l -12.4375,0 c 0.10723,0.65245 0.1875,1.31742 0.1875,2 10e-6,6.75578 -5.46296,12.21875 -12.21875,12.21875 -6.75575,0 -12.24999,-5.46297 -12.25,-12.21875 0,-0.68258 0.0797,-1.34755 0.1875,-2 l -12.40625,0 c 0.10781,0.65245 0.1875,1.31742 0.1875,2 10e-6,6.75578 -5.49421,12.21875 -12.25,12.21875 -6.75575,0 -12.24999,-5.46297 -12.25,-12.21875 0,-0.68258 0.0797,-1.34755 0.1875,-2 l -12.40625,0 c 0.10723,0.65245 0.1875,1.31742 0.1875,2 2e-5,6.75578 -5.46296,12.21875 -12.21875,12.21875 -6.75578,0 -12.24999,-5.46297 -12.25,-12.21875 0,-0.68258 0.0797,-1.34755 0.1875,-2 l -12.40625,0 c 0.10781,0.65245 0.1875,1.31742 0.1875,2 1e-5,6.75578 -5.49421,12.21875 -12.25,12.21875 -6.75575,0 -12.24999,-5.46297 -12.25,-12.21875 0,-0.68258 0.0797,-1.34755 0.1875,-2 l -12.40625,0 c 0.10781,0.65245 0.1875,1.31742 0.1875,2 1e-5,6.75578 -5.49421,12.21875 -12.25,12.21875 -6.75576,0 -12.21874,-5.46297 -12.21875,-12.21875 0,-0.68258 0.0803,-1.34755 0.1875,-2 l -12.4375,0 c 0.10723,0.65245 0.1875,1.31742 0.1875,2 1e-5,6.75578 -5.46299,12.21875 -12.21875,12.21875 -6.75576,0 -12.25002,-5.46297 -12.25,-12.21875 0,-0.68258 0.0797,-1.34755 0.1875,-2 l -12.40625,0 c 0.10781,0.65245 0.1875,1.31742 0.1875,2 -10e-6,6.75578 -5.49424,12.21875 -12.25,12.21875 -6.75575,0 -12.21877,-5.46297 -12.21875,-12.21875 0,-0.68258 0.0803,-1.34755 0.1875,-2 l -12.4375,0 c 0.10723,0.65245 0.1875,1.31742 0.1875,2 1e-5,6.75578 -5.46299,12.21875 -12.21875,12.21875 -6.75579,0 -12.25002,-5.46297 -12.25,-12.21875 0,-0.68258 0.0797,-1.34755 0.1875,-2 l -12.40625,0 c 0.10781,0.65245 0.1875,1.31742 0.1875,2 1e-5,6.75578 -5.49424,12.21875 -12.25,12.21875 -6.75579,0 -12.25002,-5.46297 -12.25,-12.21875 0,-0.68258 0.0797,-1.34755 0.1875,-2 l -12.40625,0 c 0.10781,0.65245 0.1875,1.31742 0.1875,2 -10e-6,6.75578 -5.49424,12.21875 -12.25,12.21875 -6.75575,0 -12.21877,-5.46297 -12.21875,-12.21875 0,-0.68258 0.0803,-1.34755 0.1875,-2 l -12.40625,0 c 0.10781,0.65245 0.1875,1.31742 0.1875,2 -2e-5,6.75578 -5.49424,12.21875 -12.25,12.21875 -6.75576,0 -12.25002,-5.46297 -12.25,-12.21875 0,-0.68258 0.0797,-1.34755 0.1875,-2 l -12.40625,0 c 0.10781,0.65245 0.1875,1.31742 0.1875,2 2e-5,6.75578 -5.49424,12.21875 -12.25,12.21875 -6.75578,0 -12.21877,-5.46297 -12.21875,-12.21875 0,-0.68258 0.0803,-1.34755 0.1875,-2 l -12.4375,0 c 0.10723,0.65245 0.1875,1.31742 0.1875,2 1e-5,6.75578 -5.46299,12.21875 -12.21875,12.21875 -6.75579,0 -12.25002,-5.46297 -12.25,-12.21875 0,-0.68258 0.0797,-1.34755 0.1875,-2 l -12.40625,0 c 0.10781,0.65245 0.1875,1.31742 0.1875,2 -10e-6,6.75578 -5.49424,12.21875 -12.25,12.21875 -6.755749,0 -12.250019,-5.46297 -12.249999,-12.21875 0,-0.68258 0.07969,-1.34755 0.1875,-2 l -12.40625,0 c 0.10723,0.65245 0.1875,1.31742 0.1875,2 -1e-5,6.75578 -5.46299,12.21875 -12.21875,12.21875 -6.75575,0 -12.25002,-5.46297 -12.25,-12.21875 0,-0.68258 0.07969,-1.34755 0.1875,-2 l -14.375,0 c 0.10781,0.65245 0.1875,1.31742 0.1875,2 4e-5,6.39672 -4.93016,11.61567 -11.1875,12.15625 -0.38049,0.0387 -0.76632,0.0595 -1.15625,0.0625 -0.38994,-0.003 -0.77577,-0.0238 -1.15625,-0.0625 -0.37032,-0.032 -0.73368,-0.0922 -1.09375,-0.15625 l 0,12.5 c 0.75807,-0.14648 1.54321,-0.21875 2.34375,-0.21875 6.7558,0 12.24998,5.46297 12.25,12.21875 4e-5,6.75578 -5.49424,12.25 -12.25,12.25 -0.80054,0 -1.58568,-0.0715 -2.34375,-0.21875 l 0,12.46875 c 0.75807,-0.14725 1.54321,-0.21875 2.34375,-0.21875 6.7558,0 12.24998,5.49422 12.25,12.25 4e-5,6.75578 -5.49424,12.21875 -12.25,12.21875 -0.80054,0 -1.58568,-0.0723 -2.34375,-0.21875 l 0,12.5 c 0.75807,-0.14648 1.54321,-0.21875 2.34375,-0.21875 6.7558,10e-6 12.24998,5.46298 12.25,12.21875 4e-5,6.75579 -5.49424,12.25001 -12.25,12.25 -0.80054,0 -1.58568,-0.0715 -2.34375,-0.21875 l 0,12.46875 c 0.75807,-0.14725 1.54321,-0.21875 2.34375,-0.21875 6.7558,10e-6 12.24998,5.49423 12.25,12.25 4e-5,6.75579 -5.49424,12.25001 -12.25,12.25 -0.80054,0 -1.58568,-0.0715 -2.34375,-0.21875 l 0,12.46875 c 0.75807,-0.14648 1.54321,-0.21875 2.34375,-0.21875 6.7558,1e-5 12.24998,5.46298 12.25,12.21875 4e-5,6.75579 -5.49424,12.25001 -12.25,12.25 -0.80054,0 -1.58568,-0.0715 -2.34375,-0.21875 l 0,12.46875 c 0.75807,-0.14725 1.54321,-0.21875 2.34375,-0.21875 6.7558,1e-5 12.24998,5.49423 12.25,12.25 4e-5,6.75579 -5.49424,12.25001 -12.25,12.25 -0.80054,0 -1.58568,-0.0715 -2.34375,-0.21875 l 0,12.46875 c 0.75807,-0.14725 1.54321,-0.21875 2.34375,-0.21875 6.7558,2e-5 12.24998,5.49423 12.25,12.25 4e-5,6.75579 -5.49424,12.21876 -12.25,12.21875 -0.80054,0 -1.58568,-0.0723 -2.34375,-0.21875 l 0,12.5 c 0.75807,-0.14648 1.54321,-0.21875 2.34375,-0.21875 6.7558,2e-5 12.24998,5.46298 12.25,12.21875 4e-5,6.75579 -5.49424,12.25001 -12.25,12.25 -0.80054,0 -1.58568,-0.0715 -2.34375,-0.21875 l 0,12.46875 c 0.75807,-0.14725 1.54321,-0.21875 2.34375,-0.21875 6.7558,1e-5 12.24998,5.49423 12.25,12.25 4e-5,6.75578 -5.49424,12.21876 -12.25,12.21875 -0.80054,0 -1.58568,-0.0723 -2.34375,-0.21875 l 0,12.5 c 0.75807,-0.14648 1.54321,-0.21875 2.34375,-0.21875 6.7558,2e-5 12.24998,5.46298 12.25,12.21875 4e-5,6.75579 -5.49424,12.25001 -12.25,12.25 -0.80054,0 -1.58568,-0.0715 -2.34375,-0.21875 l 0,12.46875 c 0.75807,-0.14725 1.54321,-0.21875 2.34375,-0.21875 6.7558,2e-5 12.24998,5.49423 12.25,12.25 4e-5,6.75579 -5.49424,12.25001 -12.25,12.25 -0.80054,0 -1.58568,-0.0715 -2.34375,-0.21875 l 0,12.46875 c 0.75807,-0.14725 1.54321,-0.21875 2.34375,-0.21875 6.7558,1e-5 12.24998,5.49423 12.25,12.25 4e-5,6.75578 -5.49424,12.21876 -12.25,12.21875 -0.80054,0 -1.58568,-0.0723 -2.34375,-0.21875 l 0,12.5 c 0.75807,-0.14648 1.54321,-0.21875 2.34375,-0.21875 6.7558,-10e-6 12.24998,5.46298 12.25,12.21875 4e-5,6.75573 -5.49424,12.24998 -12.25,12.25 -0.80054,0 -1.58568,-0.0715 -2.34375,-0.21875 l 0,12.46875 c 0.75807,-0.14725 1.54321,-0.21875 2.34375,-0.21875 6.7558,-5e-5 12.24998,5.4942 12.25,12.25 4e-5,6.75575 -5.49424,12.21873 -12.25,12.21875 -0.80054,0 -1.58568,-0.0723 -2.34375,-0.21875 l 0,12.5 c 0.75807,-0.14648 1.54321,-0.21875 2.34375,-0.21875 6.7558,-4e-5 12.24998,5.46295 12.25,12.21875 4e-5,6.75576 -5.49424,12.24998 -12.25,12.25 -0.80054,0 -1.58568,-0.0715 -2.34375,-0.21875 l 0,12.46875 c 0.75807,-0.14725 1.54321,-0.21875 2.34375,-0.21875 6.7558,-2e-5 12.24998,5.4942 12.25,12.25 4e-5,6.75578 -5.49424,12.24998 -12.25,12.25 -0.80054,-10e-6 -1.58568,-0.0715 -2.34375,-0.21875 l 0,12.46875 c 0.75807,-0.14648 1.54321,-0.21875 2.34375,-0.21875 6.7558,-2e-5 12.24998,5.46295 12.25,12.21875 4e-5,6.75578 -5.49424,12.24998 -12.25,12.25 -0.80054,-10e-6 -1.58568,-0.0715 -2.34375,-0.21875 l 0,14.65622 c 0.69943,-0.1247 1.42079,-0.1875 2.15625,-0.1875 6.75577,0 12.24998,5.4942 12.25,12.25 0,1.0228 -0.13783,1.9873 -0.375,2.9375 l 12.78125,0 c -0.23667,-0.9493 -0.375,-1.9158 -0.375,-2.9375 -10e-6,-6.7558 5.4942,-12.25 12.25,-12.25 6.75579,0 12.21873,5.4942 12.21875,12.25 0,1.0228 -0.13905,1.9873 -0.375,2.9375 l 12.8125,0 c -0.23546,-0.9493 -0.375,-1.9158 -0.375,-2.9375 2e-5,-6.7558 5.46295,-12.25 12.218749,-12.25 6.75576,0 12.24998,5.4942 12.25,12.25 0,1.0228 -0.13783,1.9873 -0.375,2.9375 l 12.78125,0 c -0.23667,-0.9493 -0.375,-1.9158 -0.375,-2.9375 1e-5,-6.7558 5.4942,-12.25 12.25,-12.25 6.7558,0 12.24998,5.4942 12.25,12.25 0,1.0228 -0.13783,1.9873 -0.375,2.9375 l 12.78125,0 c -0.23667,-0.9493 -0.375,-1.9158 -0.375,-2.9375 3e-5,-6.7558 5.4942,-12.25 12.25,-12.25 6.75576,0 12.21873,5.4942 12.21875,12.25 0,1.0228 -0.13905,1.9873 -0.375,2.9375 l 12.78125,0 c -0.23667,-0.9493 -0.375,-1.9158 -0.375,-2.9375 0,-6.7558 5.4942,-12.25 12.25,-12.25 6.75579,0 12.24998,5.4942 12.25,12.25 1e-5,1.0228 -0.13783,1.9873 -0.375,2.9375 l 12.78125,0 c -0.23667,-0.9493 -0.375,-1.9158 -0.375,-2.9375 -1e-5,-6.7558 5.4942,-12.25 12.25,-12.25 6.75578,0 12.21873,5.4942 12.21875,12.25 0,1.0228 -0.13905,1.9873 -0.375,2.9375 l 12.8125,0 c -0.23546,-0.9493 -0.375,-1.9158 -0.375,-2.9375 3e-5,-6.7558 5.46295,-12.25 12.21875,-12.25 6.75576,0 12.24998,5.4942 12.25,12.25 0,1.0228 -0.13783,1.9873 -0.375,2.9375 l 12.78125,0 c -0.23667,-0.9493 -0.375,-1.9158 -0.375,-2.9375 3e-5,-6.7558 5.4942,-12.25 12.25,-12.25 6.75576,0 12.24998,5.4942 12.25,12.25 0,1.0228 -0.13783,1.9873 -0.375,2.9375 l 12.78125,0 c -0.23546,-0.9493 -0.375,-1.9158 -0.375,-2.9375 0,-6.7558 5.46295,-12.25 12.21875,-12.25 6.75579,0 12.24998,5.4942 12.25,12.25 1e-5,1.0228 -0.13783,1.9873 -0.375,2.9375 l 12.78125,0 c -0.23667,-0.9493 -0.375,-1.9158 -0.375,-2.9375 -10e-6,-6.7558 5.4942,-12.25 12.25,-12.25 6.75578,0 12.25001,5.4942 12.25,12.25 0,1.0228 -0.13783,1.9873 -0.375,2.9375 l 12.78125,0 c -0.23667,-0.9493 -0.375,-1.9158 -0.375,-2.9375 0,-6.7558 5.49423,-12.25 12.25,-12.25 6.75579,0 12.21876,5.4942 12.21875,12.25 0,1.0228 -0.13905,1.9873 -0.375,2.9375 l 12.8125,0 c -0.23546,-0.9493 -0.375,-1.9158 -0.375,-2.9375 0,-6.7558 5.46298,-12.25 12.21875,-12.25 6.75579,0 12.25001,5.4942 12.25,12.25 0,1.0228 -0.13783,1.9873 -0.375,2.9375 l 12.78125,0 c -0.23667,-0.9493 -0.375,-1.9158 -0.375,-2.9375 2e-5,-6.7558 5.49423,-12.25 12.25,-12.25 6.75578,0 12.21876,5.4942 12.21875,12.25 0,1.0228 -0.13905,1.9873 -0.375,2.9375 l 12.8125,0 c -0.23546,-0.9493 -0.375,-1.9158 -0.375,-2.9375 0,-6.7558 5.46298,-12.25 12.21875,-12.25 6.7558,0 12.25001,5.4942 12.25,12.25 0,1.0228 -0.13783,1.9873 -0.375,2.9375 l 12.78125,0 c -0.23667,-0.9493 -0.375,-1.9158 -0.375,-2.9375 2e-5,-6.7558 5.49423,-12.25 12.25,-12.25 6.75579,0 12.25001,5.4942 12.25,12.25 0,1.0228 -0.13783,1.9873 -0.375,2.9375 l 12.78125,0 c -0.23667,-0.9493 -0.375,-1.9158 -0.375,-2.9375 0,-6.7558 5.49423,-12.25 12.25,-12.25 6.75578,0 12.21876,5.4942 12.21875,12.25 0,1.0228 -0.13905,1.9873 -0.375,2.9375 l 12.78125,0 c -0.23667,-0.9493 -0.375,-1.9158 -0.375,-2.9375 0,-6.7558 5.49423,-12.25 12.25,-12.25 6.75577,0 12.25001,5.4942 12.25,12.25 0,1.0228 -0.13783,1.9873 -0.375,2.9375 l 12.78125,0 c -0.23667,-0.9493 -0.375,-1.9158 -0.375,-2.9375 -2e-5,-6.7558 5.49423,-12.25 12.25,-12.25 6.75577,0 12.21876,5.4942 12.21875,12.25 0,1.0228 -0.13905,1.9873 -0.375,2.9375 l 14.78125,0 c -0.23553,-0.9487 -0.375,-1.9158 -0.375,-2.9375 0,-6.3967 4.89891,-11.6469 11.15625,-12.1875 0.34972,-0.036 0.70474,-0.057 1.0625,-0.063 0.0316,0 0.0622,-2e-4 0.0937,0 0.0315,-2e-4 0.0622,0 0.0937,0 0.40118,0 0.79611,0.025 1.1875,0.063 l 0,-12.18747 c -0.45276,0.0509 -0.90883,0.0937 -1.375,0.0937 -6.7558,-2e-5 -12.21874,-5.49424 -12.21875,-12.25 0,-6.75582 5.46298,-12.21877 12.21875,-12.21875 0.46617,0 0.92224,0.0431 1.375,0.0937 l 0,-12.25 c -0.45276,0.0507 -0.90883,0.0937 -1.375,0.0937 -6.7558,0 -12.21874,-5.46299 -12.21875,-12.21875 0,-6.7558 5.46298,-12.25002 12.21875,-12.25 0.46617,0 0.92224,0.0428 1.375,0.0937 l 0,-12.21875 c -0.45276,0.0509 -0.90883,0.0937 -1.375,0.0937 -6.7558,-2e-5 -12.21874,-5.49424 -12.21875,-12.25 0,-6.75582 5.46298,-12.21877 12.21875,-12.21875 0.46617,0 0.92224,0.0431 1.375,0.0937 l 0,-12.25 c -0.45276,0.0507 -0.90883,0.0937 -1.375,0.0937 -6.7558,-5e-5 -12.21874,-5.46299 -12.21875,-12.21875 0,-6.75579 5.46298,-12.25002 12.21875,-12.25 0.46617,0 0.92224,0.0428 1.375,0.0937 l 0,-12.21875 c -0.45276,0.0509 -0.90883,0.0937 -1.375,0.0937 -6.7558,-4e-5 -12.21874,-5.49424 -12.21875,-12.25 0,-6.75578 5.46298,-12.24999 12.21875,-12.25 0.46617,0 0.92224,0.0428 1.375,0.0937 l 0,-12.21875 c -0.45276,0.0507 -0.90883,0.0937 -1.375,0.0937 -6.7558,10e-6 -12.21874,-5.46296 -12.21875,-12.21875 0,-6.75576 5.46298,-12.24999 12.21875,-12.25 0.46617,0 0.92224,0.0428 1.375,0.0937 l 0,-12.21875 c -0.45276,0.0509 -0.90883,0.0937 -1.375,0.0937 -6.7558,10e-6 -12.21874,-5.49421 -12.21875,-12.25 0,-6.75576 5.46298,-12.24999 12.21875,-12.25 0.46617,0 0.92224,0.0428 1.375,0.0937 l 0,-12.21875 c -0.45276,0.0509 -0.90883,0.0937 -1.375,0.0937 -6.7558,10e-6 -12.21874,-5.49421 -12.21875,-12.25 0,-6.75576 5.46298,-12.21874 12.21875,-12.21875 0.46617,0 0.92224,0.0431 1.375,0.0937 l 0,-12.25 c -0.45276,0.0507 -0.90883,0.0937 -1.375,0.0937 -6.7558,2e-5 -12.21874,-5.46296 -12.21875,-12.21875 0,-6.75578 5.46298,-12.24999 12.21875,-12.25 0.46617,0 0.92224,0.0428 1.375,0.0937 l 0,-12.21875 c -0.45276,0.0509 -0.90883,0.0937 -1.375,0.0937 -6.7558,10e-6 -12.21874,-5.49421 -12.21875,-12.25 0,-6.75576 5.46298,-12.21874 12.21875,-12.21875 0.46617,0 0.92224,0.0431 1.375,0.0937 l 0,-12.25 c -0.45276,0.0507 -0.90883,0.0937 -1.375,0.0937 -6.7558,10e-6 -12.21874,-5.46296 -12.21875,-12.21875 0,-6.75576 5.46298,-12.24999 12.21875,-12.25 0.46617,0 0.92224,0.0428 1.375,0.0937 l 0,-12.21875 c -0.45276,0.0509 -0.90883,0.0937 -1.375,0.0937 -6.7558,2e-5 -12.21874,-5.49421 -12.21875,-12.25 0,-6.75578 5.46298,-12.24999 12.21875,-12.25 0.46617,0 0.92224,0.0428 1.375,0.0937 l 0,-12.21875 c -0.45276,0.0509 -0.90883,0.0937 -1.375,0.0937 -6.7558,10e-6 -12.21874,-5.49421 -12.21875,-12.25 0,-6.75577 5.46298,-12.21874 12.21875,-12.21875 0.46617,0 0.92224,0.0431 1.375,0.0937 l 0,-12.25 c -0.45276,0.0507 -0.90883,0.0937 -1.375,0.0937 -6.7558,0 -12.21874,-5.46296 -12.21875,-12.21875 0,-6.75576 5.46298,-12.24999 12.21875,-12.25 0.46617,0 0.92224,0.0428 1.375,0.0937 l 0,-12.21875 c -0.45276,0.0509 -0.90883,0.0937 -1.375,0.0937 -6.7558,1e-5 -12.21874,-5.49421 -12.21875,-12.25 0,-6.75577 5.46298,-12.21874 12.21875,-12.21875 0.46617,0 0.92224,0.0431 1.375,0.0937 l 0,-12.25 c -0.45276,0.0506 -0.90883,0.0937 -1.375,0.0937 -6.7558,10e-6 -12.21874,-5.46297 -12.21875,-12.21875 0,-6.75577 5.46298,-12.25 12.21875,-12.25 0.46617,0 0.92224,0.0428 1.375,0.0937 l 0,-12.21875 c -0.45276,0.0509 -0.90883,0.0937 -1.375,0.0937 -6.7558,0 -12.21874,-5.49422 -12.21875,-12.25 0,-6.75578 5.46298,-12.25 12.21875,-12.25 0.46617,0 0.92224,0.0428 1.375,0.0937 l 0,-14.40625 z"
       inkscape:connector-curvature="0" />
  </g>
  <rect
     style="fill:#a4c639;stroke:#ffffff;stroke-width:7.16800022"
     x="116.58745"
     y="47.066647"
     width="47.84"
     height="132.89999"
     rx="23.92"
     id="c" />
  <g
     id="layer1"
     transform="matrix(0.41863103,0,0,0.44085101,-16.390585,-91.860687)"
     style="fill:#000000">
    <path
       style="fill:#000000;stroke:#000000;stroke-width:1.79999995;stroke-linecap:butt;stroke-linejoin:miter;stroke-miterlimit:4;stroke-opacity:1;stroke-dasharray:none;stroke-dashoffset:0;marker:none;visibility:visible;display:inline;overflow:visible;enable-background:accumulate"
       id="path6076"
       d="m 724.45982,376.19643 c -0.39139,0.0376 -0.78632,0.0625 -1.1875,0.0625 -6.75578,0 -12.24999,-5.46297 -12.25,-12.21875 0,-0.68258 0.0797,-1.34755 0.1875,-2 l -12.40625,0 c 0.10781,0.65245 0.1875,1.31742 0.1875,2 -1e-5,6.75578 -5.49421,12.21875 -12.25,12.21875 -6.75579,0 -12.21874,-5.46297 -12.21875,-12.21875 0,-0.68258 0.0803,-1.34755 0.1875,-2 l -12.40625,0 c 0.10781,0.65245 0.1875,1.31742 0.1875,2 -1e-5,6.75578 -5.49421,12.21875 -12.25,12.21875 -6.75579,0 -12.24999,-5.46297 -12.25,-12.21875 0,-0.68258 0.0797,-1.34755 0.1875,-2 l -12.40625,0 c 0.10781,0.65245 0.1875,1.31742 0.1875,2 -2e-5,6.75578 -5.49421,12.21875 -12.25,12.21875 -6.75578,0 -12.21874,-5.46297 -12.21875,-12.21875 0,-0.68258 0.0803,-1.34755 0.1875,-2 l -12.4375,0 c 0.10723,0.65245 0.1875,1.31742 0.1875,2 10e-6,6.75578 -5.46296,12.21875 -12.21875,12.21875 -6.75575,0 -12.24999,-5.46297 -12.25,-12.21875 0,-0.68258 0.0797,-1.34755 0.1875,-2 l -12.40625,0 c 0.10781,0.65245 0.1875,1.31742 0.1875,2 10e-6,6.75578 -5.49421,12.21875 -12.25,12.21875 -6.75575,0 -12.24999,-5.46297 -12.25,-12.21875 0,-0.68258 0.0797,-1.34755 0.1875,-2 l -12.40625,0 c 0.10723,0.65245 0.1875,1.31742 0.1875,2 2e-5,6.75578 -5.46296,12.21875 -12.21875,12.21875 -6.75578,0 -12.24999,-5.46297 -12.25,-12.21875 0,-0.68258 0.0797,-1.34755 0.1875,-2 l -12.40625,0 c 0.10781,0.65245 0.1875,1.31742 0.1875,2 1e-5,6.75578 -5.49421,12.21875 -12.25,12.21875 -6.75575,0 -12.24999,-5.46297 -12.25,-12.21875 0,-0.68258 0.0797,-1.34755 0.1875,-2 l -12.40625,0 c 0.10781,0.65245 0.1875,1.31742 0.1875,2 1e-5,6.75578 -5.49421,12.21875 -12.25,12.21875 -6.75576,0 -12.21874,-5.46297 -12.21875,-12.21875 0,-0.68258 0.0803,-1.34755 0.1875,-2 l -12.4375,0 c 0.10723,0.65245 0.1875,1.31742 0.1875,2 1e-5,6.75578 -5.46299,12.21875 -12.21875,12.21875 -6.75576,0 -12.25002,-5.46297 -12.25,-12.21875 0,-0.68258 0.0797,-1.34755 0.1875,-2 l -12.40625,0 c 0.10781,0.65245 0.1875,1.31742 0.1875,2 -10e-6,6.75578 -5.49424,12.21875 -12.25,12.21875 -6.75575,0 -12.21877,-5.46297 -12.21875,-12.21875 0,-0.68258 0.0803,-1.34755 0.1875,-2 l -12.4375,0 c 0.10723,0.65245 0.1875,1.31742 0.1875,2 1e-5,6.75578 -5.46299,12.21875 -12.21875,12.21875 -6.75579,0 -12.25002,-5.46297 -12.25,-12.21875 0,-0.68258 0.0797,-1.34755 0.1875,-2 l -12.40625,0 c 0.10781,0.65245 0.1875,1.31742 0.1875,2 1e-5,6.75578 -5.49424,12.21875 -12.25,12.21875 -6.75579,0 -12.25002,-5.46297 -12.25,-12.21875 0,-0.68258 0.0797,-1.34755 0.1875,-2 l -12.40625,0 c 0.10781,0.65245 0.1875,1.31742 0.1875,2 -10e-6,6.75578 -5.49424,12.21875 -12.25,12.21875 -6.75575,0 -12.21877,-5.46297 -12.21875,-12.21875 0,-0.68258 0.0803,-1.34755 0.1875,-2 l -12.40625,0 c 0.10781,0.65245 0.1875,1.31742 0.1875,2 -2e-5,6.75578 -5.49424,12.21875 -12.25,12.21875 -6.75576,0 -12.25002,-5.46297 -12.25,-12.21875 0,-0.68258 0.0797,-1.34755 0.1875,-2 l -12.40625,0 c 0.10781,0.65245 0.1875,1.31742 0.1875,2 2e-5,6.75578 -5.49424,12.21875 -12.25,12.21875 -6.75578,0 -12.21877,-5.46297 -12.21875,-12.21875 0,-0.68258 0.0803,-1.34755 0.1875,-2 l -12.4375,0 c 0.10723,0.65245 0.1875,1.31742 0.1875,2 1e-5,6.75578 -5.46299,12.21875 -12.21875,12.21875 -6.75579,0 -12.25002,-5.46297 -12.25,-12.21875 0,-0.68258 0.0797,-1.34755 0.1875,-2 l -12.40625,0 c 0.10781,0.65245 0.1875,1.31742 0.1875,2 -10e-6,6.75578 -5.49424,12.21875 -12.25,12.21875 -6.755749,0 -12.250019,-5.46297 -12.249999,-12.21875 0,-0.68258 0.07969,-1.34755 0.1875,-2 l -12.40625,0 c 0.10723,0.65245 0.1875,1.31742 0.1875,2 -1e-5,6.75578 -5.46299,12.21875 -12.21875,12.21875 -6.75575,0 -12.25002,-5.46297 -12.25,-12.21875 0,-0.68258 0.07969,-1.34755 0.1875,-2 l -14.375,0 c 0.10781,0.65245 0.1875,1.31742 0.1875,2 4e-5,6.39672 -4.93016,11.61567 -11.1875,12.15625 -0.38049,0.0387 -0.76632,0.0595 -1.15625,0.0625 -0.38994,-0.003 -0.77577,-0.0238 -1.15625,-0.0625 -0.37032,-0.032 -0.73368,-0.0922 -1.09375,-0.15625 l 0,12.5 c 0.75807,-0.14648 1.54321,-0.21875 2.34375,-0.21875 6.7558,0 12.24998,5.46297 12.25,12.21875 4e-5,6.75578 -5.49424,12.25 -12.25,12.25 -0.80054,0 -1.58568,-0.0715 -2.34375,-0.21875 l 0,12.46875 c 0.75807,-0.14725 1.54321,-0.21875 2.34375,-0.21875 6.7558,0 12.24998,5.49422 12.25,12.25 4e-5,6.75578 -5.49424,12.21875 -12.25,12.21875 -0.80054,0 -1.58568,-0.0723 -2.34375,-0.21875 l 0,12.5 c 0.75807,-0.14648 1.54321,-0.21875 2.34375,-0.21875 6.7558,10e-6 12.24998,5.46298 12.25,12.21875 4e-5,6.75579 -5.49424,12.25001 -12.25,12.25 -0.80054,0 -1.58568,-0.0715 -2.34375,-0.21875 l 0,12.46875 c 0.75807,-0.14725 1.54321,-0.21875 2.34375,-0.21875 6.7558,10e-6 12.24998,5.49423 12.25,12.25 4e-5,6.75579 -5.49424,12.25001 -12.25,12.25 -0.80054,0 -1.58568,-0.0715 -2.34375,-0.21875 l 0,12.46875 c 0.75807,-0.14648 1.54321,-0.21875 2.34375,-0.21875 6.7558,1e-5 12.24998,5.46298 12.25,12.21875 4e-5,6.75579 -5.49424,12.25001 -12.25,12.25 -0.80054,0 -1.58568,-0.0715 -2.34375,-0.21875 l 0,12.46875 c 0.75807,-0.14725 1.54321,-0.21875 2.34375,-0.21875 6.7558,1e-5 12.24998,5.49423 12.25,12.25 4e-5,6.75579 -5.49424,12.25001 -12.25,12.25 -0.80054,0 -1.58568,-0.0715 -2.34375,-0.21875 l 0,12.46875 c 0.75807,-0.14725 1.54321,-0.21875 2.34375,-0.21875 6.7558,2e-5 12.24998,5.49423 12.25,12.25 4e-5,6.75579 -5.49424,12.21876 -12.25,12.21875 -0.80054,0 -1.58568,-0.0723 -2.34375,-0.21875 l 0,12.5 c 0.75807,-0.14648 1.54321,-0.21875 2.34375,-0.21875 6.7558,2e-5 12.24998,5.46298 12.25,12.21875 4e-5,6.75579 -5.49424,12.25001 -12.25,12.25 -0.80054,0 -1.58568,-0.0715 -2.34375,-0.21875 l 0,12.46875 c 0.75807,-0.14725 1.54321,-0.21875 2.34375,-0.21875 6.7558,1e-5 12.24998,5.49423 12.25,12.25 4e-5,6.75578 -5.49424,12.21876 -12.25,12.21875 -0.80054,0 -1.58568,-0.0723 -2.34375,-0.21875 l 0,12.5 c 0.75807,-0.14648 1.54321,-0.21875 2.34375,-0.21875 6.7558,2e-5 12.24998,5.46298 12.25,12.21875 4e-5,6.75579 -5.49424,12.25001 -12.25,12.25 -0.80054,0 -1.58568,-0.0715 -2.34375,-0.21875 l 0,12.46875 c 0.75807,-0.14725 1.54321,-0.21875 2.34375,-0.21875 6.7558,2e-5 12.24998,5.49423 12.25,12.25 4e-5,6.75579 -5.49424,12.25001 -12.25,12.25 -0.80054,0 -1.58568,-0.0715 -2.34375,-0.21875 l 0,12.46875 c 0.75807,-0.14725 1.54321,-0.21875 2.34375,-0.21875 6.7558,1e-5 12.24998,5.49423 12.25,12.25 4e-5,6.75578 -5.49424,12.21876 -12.25,12.21875 -0.80054,0 -1.58568,-0.0723 -2.34375,-0.21875 l 0,12.5 c 0.75807,-0.14648 1.54321,-0.21875 2.34375,-0.21875 6.7558,-10e-6 12.24998,5.46298 12.25,12.21875 4e-5,6.75573 -5.49424,12.24998 -12.25,12.25 -0.80054,0 -1.58568,-0.0715 -2.34375,-0.21875 l 0,12.46875 c 0.75807,-0.14725 1.54321,-0.21875 2.34375,-0.21875 6.7558,-5e-5 12.24998,5.4942 12.25,12.25 4e-5,6.75575 -5.49424,12.21873 -12.25,12.21875 -0.80054,0 -1.58568,-0.0723 -2.34375,-0.21875 l 0,12.5 c 0.75807,-0.14648 1.54321,-0.21875 2.34375,-0.21875 6.7558,-4e-5 12.24998,5.46295 12.25,12.21875 4e-5,6.75576 -5.49424,12.24998 -12.25,12.25 -0.80054,0 -1.58568,-0.0715 -2.34375,-0.21875 l 0,12.46875 c 0.75807,-0.14725 1.54321,-0.21875 2.34375,-0.21875 6.7558,-2e-5 12.24998,5.4942 12.25,12.25 4e-5,6.75578 -5.49424,12.24998 -12.25,12.25 -0.80054,-10e-6 -1.58568,-0.0715 -2.34375,-0.21875 l 0,12.46875 c 0.75807,-0.14648 1.54321,-0.21875 2.34375,-0.21875 6.7558,-2e-5 12.24998,5.46295 12.25,12.21875 4e-5,6.75578 -5.49424,12.24998 -12.25,12.25 -0.80054,-10e-6 -1.58568,-0.0715 -2.34375,-0.21875 l 0,14.65622 c 0.69943,-0.1247 1.42079,-0.1875 2.15625,-0.1875 6.75577,0 12.24998,5.4942 12.25,12.25 0,1.0228 -0.13783,1.9873 -0.375,2.9375 l 12.78125,0 c -0.23667,-0.9493 -0.375,-1.9158 -0.375,-2.9375 -10e-6,-6.7558 5.4942,-12.25 12.25,-12.25 6.75579,0 12.21873,5.4942 12.21875,12.25 0,1.0228 -0.13905,1.9873 -0.375,2.9375 l 12.8125,0 c -0.23546,-0.9493 -0.375,-1.9158 -0.375,-2.9375 2e-5,-6.7558 5.46295,-12.25 12.218749,-12.25 6.75576,0 12.24998,5.4942 12.25,12.25 0,1.0228 -0.13783,1.9873 -0.375,2.9375 l 12.78125,0 c -0.23667,-0.9493 -0.375,-1.9158 -0.375,-2.9375 1e-5,-6.7558 5.4942,-12.25 12.25,-12.25 6.7558,0 12.24998,5.4942 12.25,12.25 0,1.0228 -0.13783,1.9873 -0.375,2.9375 l 12.78125,0 c -0.23667,-0.9493 -0.375,-1.9158 -0.375,-2.9375 3e-5,-6.7558 5.4942,-12.25 12.25,-12.25 6.75576,0 12.21873,5.4942 12.21875,12.25 0,1.0228 -0.13905,1.9873 -0.375,2.9375 l 12.78125,0 c -0.23667,-0.9493 -0.375,-1.9158 -0.375,-2.9375 0,-6.7558 5.4942,-12.25 12.25,-12.25 6.75579,0 12.24998,5.4942 12.25,12.25 1e-5,1.0228 -0.13783,1.9873 -0.375,2.9375 l 12.78125,0 c -0.23667,-0.9493 -0.375,-1.9158 -0.375,-2.9375 -1e-5,-6.7558 5.4942,-12.25 12.25,-12.25 6.75578,0 12.21873,5.4942 12.21875,12.25 0,1.0228 -0.13905,1.9873 -0.375,2.9375 l 12.8125,0 c -0.23546,-0.9493 -0.375,-1.9158 -0.375,-2.9375 3e-5,-6.7558 5.46295,-12.25 12.21875,-12.25 6.75576,0 12.24998,5.4942 12.25,12.25 0,1.0228 -0.13783,1.9873 -0.375,2.9375 l 12.78125,0 c -0.23667,-0.9493 -0.375,-1.9158 -0.375,-2.9375 3e-5,-6.7558 5.4942,-12.25 12.25,-12.25 6.75576,0 12.24998,5.4942 12.25,12.25 0,1.0228 -0.13783,1.9873 -0.375,2.9375 l 12.78125,0 c -0.23546,-0.9493 -0.375,-1.9158 -0.375,-2.9375 0,-6.7558 5.46295,-12.25 12.21875,-12.25 6.75579,0 12.24998,5.4942 12.25,12.25 1e-5,1.0228 -0.13783,1.9873 -0.375,2.9375 l 12.78125,0 c -0.23667,-0.9493 -0.375,-1.9158 -0.375,-2.9375 -10e-6,-6.7558 5.4942,-12.25 12.25,-12.25 6.75578,0 12.25001,5.4942 12.25,12.25 0,1.0228 -0.13783,1.9873 -0.375,2.9375 l 12.78125,0 c -0.23667,-0.9493 -0.375,-1.9158 -0.375,-2.9375 0,-6.7558 5.49423,-12.25 12.25,-12.25 6.75579,0 12.21876,5.4942 12.21875,12.25 0,1.0228 -0.13905,1.9873 -0.375,2.9375 l 12.8125,0 c -0.23546,-0.9493 -0.375,-1.9158 -0.375,-2.9375 0,-6.7558 5.46298,-12.25 12.21875,-12.25 6.75579,0 12.25001,5.4942 12.25,12.25 0,1.0228 -0.13783,1.9873 -0.375,2.9375 l 12.78125,0 c -0.23667,-0.9493 -0.375,-1.9158 -0.375,-2.9375 2e-5,-6.7558 5.49423,-12.25 12.25,-12.25 6.75578,0 12.21876,5.4942 12.21875,12.25 0,1.0228 -0.13905,1.9873 -0.375,2.9375 l 12.8125,0 c -0.23546,-0.9493 -0.375,-1.9158 -0.375,-2.9375 0,-6.7558 5.46298,-12.25 12.21875,-12.25 6.7558,0 12.25001,5.4942 12.25,12.25 0,1.0228 -0.13783,1.9873 -0.375,2.9375 l 12.78125,0 c -0.23667,-0.9493 -0.375,-1.9158 -0.375,-2.9375 2e-5,-6.7558 5.49423,-12.25 12.25,-12.25 6.75579,0 12.25001,5.4942 12.25,12.25 0,1.0228 -0.13783,1.9873 -0.375,2.9375 l 12.78125,0 c -0.23667,-0.9493 -0.375,-1.9158 -0.375,-2.9375 0,-6.7558 5.49423,-12.25 12.25,-12.25 6.75578,0 12.21876,5.4942 12.21875,12.25 0,1.0228 -0.13905,1.9873 -0.375,2.9375 l 12.78125,0 c -0.23667,-0.9493 -0.375,-1.9158 -0.375,-2.9375 0,-6.7558 5.49423,-12.25 12.25,-12.25 6.75577,0 12.25001,5.4942 12.25,12.25 0,1.0228 -0.13783,1.9873 -0.375,2.9375 l 12.78125,0 c -0.23667,-0.9493 -0.375,-1.9158 -0.375,-2.9375 -2e-5,-6.7558 5.49423,-12.25 12.25,-12.25 6.75577,0 12.21876,5.4942 12.21875,12.25 0,1.0228 -0.13905,1.9873 -0.375,2.9375 l 14.78125,0 c -0.23553,-0.9487 -0.375,-1.9158 -0.375,-2.9375 0,-6.3967 4.89891,-11.6469 11.15625,-12.1875 0.34972,-0.036 0.70474,-0.057 1.0625,-0.063 0.0316,0 0.0622,-2e-4 0.0937,0 0.0315,-2e-4 0.0622,0 0.0937,0 0.40118,0 0.79611,0.025 1.1875,0.063 l 0,-12.18747 c -0.45276,0.0509 -0.90883,0.0937 -1.375,0.0937 -6.7558,-2e-5 -12.21874,-5.49424 -12.21875,-12.25 0,-6.75582 5.46298,-12.21877 12.21875,-12.21875 0.46617,0 0.92224,0.0431 1.375,0.0937 l 0,-12.25 c -0.45276,0.0507 -0.90883,0.0937 -1.375,0.0937 -6.7558,0 -12.21874,-5.46299 -12.21875,-12.21875 0,-6.7558 5.46298,-12.25002 12.21875,-12.25 0.46617,0 0.92224,0.0428 1.375,0.0937 l 0,-12.21875 c -0.45276,0.0509 -0.90883,0.0937 -1.375,0.0937 -6.7558,-2e-5 -12.21874,-5.49424 -12.21875,-12.25 0,-6.75582 5.46298,-12.21877 12.21875,-12.21875 0.46617,0 0.92224,0.0431 1.375,0.0937 l 0,-12.25 c -0.45276,0.0507 -0.90883,0.0937 -1.375,0.0937 -6.7558,-5e-5 -12.21874,-5.46299 -12.21875,-12.21875 0,-6.75579 5.46298,-12.25002 12.21875,-12.25 0.46617,0 0.92224,0.0428 1.375,0.0937 l 0,-12.21875 c -0.45276,0.0509 -0.90883,0.0937 -1.375,0.0937 -6.7558,-4e-5 -12.21874,-5.49424 -12.21875,-12.25 0,-6.75578 5.46298,-12.24999 12.21875,-12.25 0.46617,0 0.92224,0.0428 1.375,0.0937 l 0,-12.21875 c -0.45276,0.0507 -0.90883,0.0937 -1.375,0.0937 -6.7558,10e-6 -12.21874,-5.46296 -12.21875,-12.21875 0,-6.75576 5.46298,-12.24999 12.21875,-12.25 0.46617,0 0.92224,0.0428 1.375,0.0937 l 0,-12.21875 c -0.45276,0.0509 -0.90883,0.0937 -1.375,0.0937 -6.7558,10e-6 -12.21874,-5.49421 -12.21875,-12.25 0,-6.75576 5.46298,-12.24999 12.21875,-12.25 0.46617,0 0.92224,0.0428 1.375,0.0937 l 0,-12.21875 c -0.45276,0.0509 -0.90883,0.0937 -1.375,0.0937 -6.7558,10e-6 -12.21874,-5.49421 -12.21875,-12.25 0,-6.75576 5.46298,-12.21874 12.21875,-12.21875 0.46617,0 0.92224,0.0431 1.375,0.0937 l 0,-12.25 c -0.45276,0.0507 -0.90883,0.0937 -1.375,0.0937 -6.7558,2e-5 -12.21874,-5.46296 -12.21875,-12.21875 0,-6.75578 5.46298,-12.24999 12.21875,-12.25 0.46617,0 0.92224,0.0428 1.375,0.0937 l 0,-12.21875 c -0.45276,0.0509 -0.90883,0.0937 -1.375,0.0937 -6.7558,10e-6 -12.21874,-5.49421 -12.21875,-12.25 0,-6.75576 5.46298,-12.21874 12.21875,-12.21875 0.46617,0 0.92224,0.0431 1.375,0.0937 l 0,-12.25 c -0.45276,0.0507 -0.90883,0.0937 -1.375,0.0937 -6.7558,10e-6 -12.21874,-5.46296 -12.21875,-12.21875 0,-6.75576 5.46298,-12.24999 12.21875,-12.25 0.46617,0 0.92224,0.0428 1.375,0.0937 l 0,-12.21875 c -0.45276,0.0509 -0.90883,0.0937 -1.375,0.0937 -6.7558,2e-5 -12.21874,-5.49421 -12.21875,-12.25 0,-6.75578 5.46298,-12.24999 12.21875,-12.25 0.46617,0 0.92224,0.0428 1.375,0.0937 l 0,-12.21875 c -0.45276,0.0509 -0.90883,0.0937 -1.375,0.0937 -6.7558,10e-6 -12.21874,-5.49421 -12.21875,-12.25 0,-6.75577 5.46298,-12.21874 12.21875,-12.21875 0.46617,0 0.92224,0.0431 1.375,0.0937 l 0,-12.25 c -0.45276,0.0507 -0.90883,0.0937 -1.375,0.0937 -6.7558,0 -12.21874,-5.46296 -12.21875,-12.21875 0,-6.75576 5.46298,-12.24999 12.21875,-12.25 0.46617,0 0.92224,0.0428 1.375,0.0937 l 0,-12.21875 c -0.45276,0.0509 -0.90883,0.0937 -1.375,0.0937 -6.7558,1e-5 -12.21874,-5.49421 -12.21875,-12.25 0,-6.75577 5.46298,-12.21874 12.21875,-12.21875 0.46617,0 0.92224,0.0431 1.375,0.0937 l 0,-12.25 c -0.45276,0.0506 -0.90883,0.0937 -1.375,0.0937 -6.7558,10e-6 -12.21874,-5.46297 -12.21875,-12.21875 0,-6.75577 5.46298,-12.25 12.21875,-12.25 0.46617,0 0.92224,0.0428 1.375,0.0937 l 0,-12.21875 c -0.45276,0.0509 -0.90883,0.0937 -1.375,0.0937 -6.7558,0 -12.21874,-5.49422 -12.21875,-12.25 0,-6.75578 5.46298,-12.25 12.21875,-12.25 0.46617,0 0.92224,0.0428 1.375,0.0937 l 0,-14.40625 z"
       inkscape:connector-curvature="0" />
  </g>
  <rect
     style="fill:none;stroke:none"
     id="rect4036"
     width="267.20248"
     height="67.828316"
     x="-220.95589"
     y="-22.861843"
     rx="17.077421" />
  <rect
     style="fill:#ffffff;stroke:none"
     id="rect4217"
     width="257.0914"
     height="339.8793"
     x="11.961747"
     y="3.9344819"
     rx="30.661085" />
  <g
     id="g4219"
     transform="translate(278.9016,148.52537)">
    <rect
       transform="scale(-1,1)"
       style="fill:#a4c639;stroke:#ffffff;stroke-width:5.11751461"
       x="210.29562"
       y="4.3385358"
       width="34.154842"
       height="94.882484"
       rx="17.077421"
       id="rect3059-2" />
    <g
       transform="translate(2.7271997,4)"
       id="g4188">
      <g
         id="g3906"
         transform="translate(-301.56954,-172.6539)">
        <use
           transform="matrix(1.3487191,0,0,0.65055509,-143.25754,182.61495)"
           xlink:href="#c"
           y="96.970001"
           x="85.026001"
           id="use18-6"
           width="294"
           height="343"
           style="fill:none;stroke:none" />
      </g>
      <use
         xlink:href="#c"
         y="96.970001"
         x="85.026001"
         id="use3061-3"
         width="294"
         height="343"
         style="fill:#a4c639;stroke:#ffffff;stroke-width:7.16800022"
         transform="matrix(-0.33090324,0,0,1.0225614,-105.40368,-112.83367)" />
      <use
         xlink:href="#c"
         y="96.970001"
         x="85.026001"
         id="use3061"
         width="294"
         height="343"
         style="fill:#a4c639;stroke:#ffffff;stroke-width:7.16800022"
         transform="matrix(-0.33090324,0,0,1.0225614,-25.566523,-113.95766)" />
    </g>
    <rect
       transform="scale(-1,1)"
       style="fill:#a4c639;stroke:#ffffff;stroke-width:4.26405621;stroke-opacity:0"
       id="rect3063"
       x="72.635056"
       y="6.2755208"
       width="129.50519"
       height="91.008514"
       rx="15.63676" />
    <g
       id="g4194">
      <g
         id="g4112">
        <rect
           rx="5.072"
           transform="matrix(0.87672676,0.48098877,-0.48098877,0.87672676,0,0)"
           height="43"
           width="10.144"
           y="-74.431511"
           x="-141.25926"
           id="rect13-2"
           style="fill:#a4c639;stroke:#ffffff;stroke-width:7.16800022" />
        <rect
           style="fill:#a4c639;stroke:#ffffff;stroke-width:7.16800022"
           id="rect3055-5"
           x="108.48899"
           y="-211.4481"
           width="10.144"
           height="43"
           transform="matrix(-0.87672676,0.48098877,0.48098877,0.87672676,0,0)"
           rx="5.072" />
      </g>
      <rect
         id="rect3059-2-8-9"
         rx="17.077421"
         height="94.882484"
         width="34.154842"
         y="-234.48297"
         x="-73.339569"
         style="fill:#a4c639;stroke:#ffffff;stroke-width:5.11751461"
         transform="matrix(0,1,1,0,0,0)" />
      <rect
         id="rect3059-2-8"
         rx="17.077421"
         height="94.882484"
         width="34.154842"
         y="-136.8513"
         x="-73.339569"
         style="fill:#a4c639;stroke:#ffffff;stroke-width:5.11751461"
         transform="matrix(0,1,1,0,0,0)" />
      <rect
         style="fill:#a4c639;stroke:#ffffff;stroke-width:4.90848875;stroke-opacity:0"
         id="rect20"
         x="-214.98506"
         y="-102.07699"
         width="153.79308"
         height="101.55052"
         rx="18.56934" />
      <g
         id="g4184">
        <circle
           transform="matrix(1.6297262,0,0,1.6297262,-414.21726,-168.83875)"
           cy="69.077003"
           cx="188.24001"
           r="7.6700001"
           id="circle26"
           sodipodi:cx="188.24001"
           sodipodi:cy="69.077003"
           sodipodi:rx="7.6700001"
           sodipodi:ry="7.6700001"
           style="fill:#ffffff"
           d="m 195.91001,69.077003 c 0,4.236025 -3.43398,7.670001 -7.67,7.670001 -4.23603,0 -7.67,-3.433976 -7.67,-7.670001 0,-4.236024 3.43397,-7.67 7.67,-7.67 4.23602,0 7.67,3.433976 7.67,7.67 z" />
        <circle
           transform="matrix(1.6297262,0,0,1.6297262,-345.28005,-168.83875)"
           cy="69.077003"
           cx="104.88"
           r="7.6700001"
           id="circle28"
           sodipodi:cx="104.88"
           sodipodi:cy="69.077003"
           sodipodi:rx="7.6700001"
           sodipodi:ry="7.6700001"
           style="fill:#ffffff"
           d="m 112.55,69.077003 c 0,4.236025 -3.43398,7.670001 -7.67,7.670001 -4.23603,0 -7.670003,-3.433976 -7.670003,-7.670001 0,-4.236024 3.433973,-7.67 7.670003,-7.67 4.23602,0 7.67,3.433976 7.67,7.67 z" />
      </g>
    </g>
    <rect
       transform="scale(-1,1)"
       style="fill:#a4c639;stroke:#ffffff;stroke-width:5.11751461"
       x="32.33783"
       y="4.3385358"
       width="34.154842"
       height="94.882484"
       rx="17.077421"
       id="rect3059-2-4" />
  </g>
</svg>
